<svg width="103" height="13" viewBox="0 0 103 13" fill="none" xmlns="http://www.w3.org/2000/svg">
<path d="M5.49853e-06 12.8701V0.000116587H10.782C12.114 0.000116587 13.146 0.336117 13.878 1.00812C14.622 1.68012 14.994 2.70012 14.994 4.06812C14.994 5.23212 14.724 6.14412 14.184 6.80412C13.644 7.46412 12.876 7.87812 11.88 8.04612L14.85 12.8701H11.574L8.82001 8.13612H2.88001V12.8701H5.49853e-06ZM10.44 2.34012H2.88001V5.77812L10.44 5.79612C10.968 5.79612 11.37 5.66412 11.646 5.40012C11.934 5.13612 12.078 4.69212 12.078 4.06812C12.078 3.43212 11.934 2.98812 11.646 2.73612C11.37 2.47212 10.968 2.34012 10.44 2.34012ZM16.8863 12.8701V3.60012H19.4963V12.8701H16.8863ZM16.8683 2.07012V0.0361161H19.5143V2.07012H16.8683ZM23.5261 12.8701V5.67012H20.8441V3.60012H23.5261V2.88012C23.5261 2.02812 23.7721 1.34412 24.2641 0.828117C24.7561 0.300116 25.5241 0.0361161 26.5681 0.0361161H30.4921V2.10612H27.2161C26.4961 2.10612 26.1361 2.47212 26.1361 3.20412V3.60012H29.9881V5.67012H26.1361V12.8701H23.5261ZM33.7215 12.8701V5.67012H31.0395V3.60012H33.7215V2.88012C33.7215 2.02812 33.9675 1.34412 34.4595 0.828117C34.9515 0.300116 35.7195 0.0361161 36.7635 0.0361161H40.6875V2.10612H37.4115C36.6915 2.10612 36.3315 2.47212 36.3315 3.20412V3.60012H40.1835V5.67012H36.3315V12.8701H33.7215ZM48.4277 12.8701V0.0361161H51.3077V5.27412H55.5917L59.8217 0.0361161H63.4037L58.1117 6.44412L63.4037 12.8701H59.8217L55.5737 7.61412H51.3077V12.8701H48.4277ZM64.5757 12.8701V3.60012H67.1857V12.8701H64.5757ZM64.5577 2.07012V0.0361161H67.2037V2.07012H64.5577ZM69.1636 12.8701V0.000116587H71.7736V12.8701H69.1636ZM73.7515 12.8701V0.000116587H76.3615V12.8701H73.7515ZM83.0914 12.9601C81.4834 12.9601 80.2294 12.5641 79.3294 11.7721C78.4294 10.9681 77.9794 9.79212 77.9794 8.24412C77.9794 6.68412 78.4294 5.50812 79.3294 4.71612C80.2294 3.91212 81.4834 3.51012 83.0914 3.51012H87.5914C88.6474 3.51012 89.4514 3.76212 90.0034 4.26612C90.5674 4.75812 90.8494 5.46612 90.8494 6.39012C90.8494 8.27412 89.7634 9.21612 87.5914 9.21612H80.7874C81.0394 10.3321 81.8074 10.8901 83.0914 10.8901H90.3814V12.9601H83.0914ZM83.0914 5.58012C81.8554 5.58012 81.0934 6.10212 80.8054 7.14612H87.4654C87.7054 7.14612 87.8914 7.07412 88.0234 6.93012C88.1674 6.78612 88.2394 6.58812 88.2394 6.33612C88.2394 5.83212 87.9814 5.58012 87.4654 5.58012H83.0914ZM92.4722 12.8701V3.60012H99.5642C100.608 3.60012 101.376 3.86412 101.868 4.39212C102.36 4.90812 102.606 5.59212 102.606 6.44412V8.37012H99.9602V6.76812C99.9602 6.04812 99.6002 5.68812 98.8802 5.68812H95.1182V12.8701H92.4722Z" fill="white"/>
</svg>
