<svg width="137" height="18" viewBox="0 0 137 18" fill="none" xmlns="http://www.w3.org/2000/svg">
<path d="M6.83665e-05 17.16V3.33786e-05H14.3761C16.1521 3.33786e-05 17.5281 0.448033 18.5041 1.34403C19.4961 2.24003 19.9921 3.60003 19.9921 5.42403C19.9921 6.97603 19.6321 8.19203 18.9121 9.07203C18.1921 9.95203 17.1681 10.504 15.8401 10.728L19.8001 17.16H15.4321L11.7601 10.848H3.84007V17.16H6.83665e-05ZM13.9201 3.12003H3.84007V7.70403L13.9201 7.72803C14.6241 7.72803 15.1601 7.55203 15.5281 7.20003C15.9121 6.84803 16.1041 6.25603 16.1041 5.42403C16.1041 4.57603 15.9121 3.98403 15.5281 3.64803C15.1601 3.29603 14.6241 3.12003 13.9201 3.12003ZM22.5151 17.16V4.80003H25.9951V17.16H22.5151ZM22.4911 2.76003V0.0480328H26.0191V2.76003H22.4911ZM31.3683 17.16V7.56003H27.7923V4.80003H31.3683V3.84003C31.3683 2.70403 31.6963 1.79203 32.3523 1.10403C33.0083 0.400033 34.0323 0.0480328 35.4243 0.0480328H40.6563V2.80803H36.2883C35.3283 2.80803 34.8483 3.29603 34.8483 4.27203V4.80003H39.9843V7.56003H34.8483V17.16H31.3683ZM44.962 17.16V7.56003H41.386V4.80003H44.962V3.84003C44.962 2.70403 45.29 1.79203 45.946 1.10403C46.602 0.400033 47.626 0.0480328 49.018 0.0480328H54.25V2.80803H49.882C48.922 2.80803 48.442 3.29603 48.442 4.27203V4.80003H53.578V7.56003H48.442V17.16H44.962ZM64.5704 17.16V0.0480328H68.4104V7.03203H74.1224L79.7624 0.0480328H84.5384L77.4824 8.59203L84.5384 17.16H79.7624L74.0984 10.152H68.4104V17.16H64.5704ZM86.101 17.16V4.80003H89.581V17.16H86.101ZM86.077 2.76003V0.0480328H89.605V2.76003H86.077ZM92.2182 17.16V3.33786e-05H95.6982V17.16H92.2182ZM98.3354 17.16V3.33786e-05H101.815V17.16H98.3354ZM110.789 17.28C108.645 17.28 106.973 16.752 105.773 15.696C104.573 14.624 103.973 13.056 103.973 10.992C103.973 8.91203 104.573 7.34403 105.773 6.28803C106.973 5.21603 108.645 4.68003 110.789 4.68003H116.789C118.197 4.68003 119.269 5.01603 120.005 5.68803C120.757 6.34403 121.133 7.28803 121.133 8.52003C121.133 11.032 119.685 12.288 116.789 12.288H107.717C108.053 13.776 109.077 14.52 110.789 14.52H120.509V17.28H110.789ZM110.789 7.44003C109.141 7.44003 108.125 8.13603 107.741 9.52803H116.621C116.941 9.52803 117.189 9.43203 117.365 9.24003C117.557 9.04803 117.653 8.78403 117.653 8.44803C117.653 7.77603 117.309 7.44003 116.621 7.44003H110.789ZM123.296 17.16V4.80003H132.752C134.144 4.80003 135.168 5.15203 135.824 5.85603C136.48 6.54403 136.808 7.45603 136.808 8.59203V11.16H133.28V9.02403C133.28 8.06403 132.8 7.58403 131.84 7.58403H126.824V17.16H123.296Z" fill="#12121a"/>
</svg>
