<svg width="100" height="100" viewBox="0 0 100 100" fill="none" xmlns="http://www.w3.org/2000/svg">
<path d="M50.012 0C22.434 0 0 22.41 0 49.988C0 63.265 5.1992 75.351 13.672 84.312C22.797 93.9643 35.711 100 50.012 100C77.59 100 100 77.566 100 49.988C100 22.41 77.59 0 50.012 0ZM50.012 6.25C74.211 6.25 93.75 25.789 93.75 49.988C93.75 59.5622 90.6875 68.406 85.4922 75.605C81.7344 65.007 73.2262 56.644 62.4802 52.941C67.5232 49.1402 70.7927 43.1051 70.7927 36.332C70.7927 24.887 61.4529 15.523 50.0117 15.523C38.5667 15.523 29.2227 24.8863 29.2227 36.332C29.2227 43.1054 32.5 49.141 37.543 52.941C26.793 56.6402 18.266 65 14.504 75.597C9.3087 68.4017 6.2501 59.558 6.2501 49.988C6.2501 25.789 25.812 6.25 50.012 6.25ZM50.012 21.777C58.0784 21.777 64.543 28.2692 64.543 36.336C64.543 44.4024 58.0782 50.867 50.012 50.867C41.9456 50.867 35.473 44.4022 35.473 36.336C35.473 28.2696 41.9457 21.777 50.012 21.777ZM50.012 57.117C65.145 57.117 77.59 67.437 80.633 81.258C72.7502 88.9885 61.949 93.75 50.012 93.75C38.078 93.75 27.274 88.9922 19.383 81.27C22.4221 67.446 34.871 57.117 50.012 57.117Z" fill="#6B3DA6"/>
</svg>
