<svg width="16" height="16" viewBox="0 0 16 16" fill="none" xmlns="http://www.w3.org/2000/svg">
<g opacity="0.5">
<path d="M15.8718 7.23333C13.8149 4.24542 10.6921 2.5 8 2.5C5.30791 2.5 2.18507 4.24542 0.127822 7.23333C0.0615111 7.32969 0 7.45805 0 7.5864C0 7.71493 0.0615111 7.84293 0.127822 7.93947C2.18507 10.9274 5.30791 12.6728 8 12.6728C10.6921 12.6728 13.8149 10.9274 15.8718 7.93947C15.9385 7.84293 16 7.71493 16 7.5864C16 7.45805 15.9385 7.32969 15.8718 7.23333ZM8 11.26C5.9712 11.26 4.3264 9.6152 4.3264 7.5864C4.3264 5.5576 5.9712 3.9128 8 3.9128C10.0288 3.9128 11.6736 5.5576 11.6736 7.5864C11.6736 9.6152 10.0288 11.26 8 11.26Z" fill="white"/>
<path d="M9.39501 7.1943C8.84123 7.1943 8.39181 6.74506 8.39181 6.1911C8.39181 5.80213 8.6135 5.46559 8.93688 5.29901C8.64763 5.18026 8.33154 5.11377 7.99963 5.11377C6.63412 5.11377 5.5271 6.22097 5.5271 7.5863C5.5271 8.95164 6.6343 10.0588 7.99981 10.0588C9.3655 10.0588 10.4723 8.95181 10.4723 7.5863C10.4723 7.25421 10.4059 6.93813 10.2871 6.64888C10.1207 6.97244 9.78417 7.1943 9.39501 7.1943Z" fill="white"/>
</g>
</svg>
