<svg width="21" height="84" viewBox="0 0 21 84" fill="none" xmlns="http://www.w3.org/2000/svg">
<rect x="0.5" y="0.5" width="20" height="83" rx="10" stroke="#F9F9F9" stroke-opacity="0.18"/>
<path d="M6.39062 70.9688L13.5 70.9687L13.5 72.1943L6.39062 72.1943L6.39062 70.9688ZM9.34473 66.3955L13.5 66.3955L13.5 67.5723L8.2168 67.5723L8.2168 66.4639L9.34473 66.3955ZM10.6631 66.6055L10.6582 66.9863C10.2839 66.9831 9.94043 66.931 9.62793 66.8301C9.31543 66.7259 9.04687 66.5827 8.82227 66.4004C8.59766 66.2148 8.42513 65.9935 8.30469 65.7363C8.18099 65.4792 8.11914 65.1927 8.11914 64.877C8.11914 64.623 8.15495 64.3936 8.22656 64.1885C8.29492 63.9801 8.40723 63.8027 8.56348 63.6562C8.71973 63.5065 8.92318 63.3926 9.17383 63.3145C9.42122 63.2363 9.72559 63.1973 10.0869 63.1973L13.5 63.1973L13.5 64.3789L10.082 64.3789C9.82812 64.3789 9.62793 64.4163 9.48144 64.4912C9.33171 64.5628 9.22591 64.6686 9.16406 64.8086C9.09896 64.9453 9.06641 65.1162 9.06641 65.3213C9.06641 65.5231 9.10872 65.7038 9.19336 65.8633C9.27799 66.0228 9.39355 66.1579 9.54004 66.2686C9.68652 66.376 9.85579 66.459 10.0479 66.5176C10.2399 66.5762 10.445 66.6055 10.6631 66.6055ZM12.0693 57.0322C11.9521 57.0322 11.8464 57.0615 11.752 57.1201C11.6543 57.1787 11.5664 57.291 11.4883 57.457C11.4102 57.6198 11.3385 57.8607 11.2734 58.1797C11.2116 58.4596 11.1383 58.7168 11.0537 58.9512C10.9658 59.1823 10.86 59.3809 10.7363 59.5469C10.6126 59.7129 10.4661 59.8415 10.2969 59.9326C10.1276 60.0238 9.93229 60.0693 9.71094 60.0693C9.49609 60.0693 9.29264 60.0221 9.10059 59.9277C8.90853 59.8333 8.73926 59.6982 8.59277 59.5225C8.44629 59.3467 8.33073 59.1335 8.24609 58.8828C8.16146 58.6289 8.11914 58.3457 8.11914 58.0332C8.11914 57.5905 8.19401 57.2113 8.34375 56.8955C8.49023 56.5765 8.69043 56.3324 8.94434 56.1631C9.19499 55.9938 9.47819 55.9092 9.79394 55.9092L9.79394 57.0859C9.65397 57.0859 9.52376 57.1217 9.40332 57.1934C9.27962 57.2617 9.18034 57.3659 9.10547 57.5059C9.02734 57.6458 8.98828 57.8216 8.98828 58.0332C8.98828 58.235 9.02083 58.4027 9.08594 58.5361C9.14779 58.6663 9.22917 58.764 9.33008 58.8291C9.43099 58.891 9.54167 58.9219 9.66211 58.9219C9.75 58.9219 9.82975 58.9056 9.90137 58.873C9.96973 58.8372 10.0332 58.7786 10.0918 58.6973C10.1471 58.6159 10.1992 58.5052 10.248 58.3652C10.2969 58.222 10.3441 58.043 10.3896 57.8281C10.4743 57.4245 10.5833 57.0778 10.7168 56.7881C10.847 56.4951 11.0163 56.2705 11.2246 56.1143C11.4297 55.958 11.6901 55.8799 12.0059 55.8799C12.2402 55.8799 12.4551 55.9303 12.6504 56.0312C12.8424 56.1289 13.0101 56.2721 13.1533 56.4609C13.2933 56.6497 13.4023 56.876 13.4805 57.1396C13.5586 57.4001 13.5977 57.693 13.5977 58.0186C13.5977 58.4971 13.513 58.9023 13.3437 59.2344C13.1712 59.5664 12.9515 59.8187 12.6846 59.9912C12.4144 60.1605 12.1344 60.2451 11.8447 60.2451L11.8447 59.1074C12.0628 59.0944 12.237 59.0342 12.3672 58.9268C12.4941 58.8161 12.5869 58.6794 12.6455 58.5166C12.7008 58.3506 12.7285 58.1797 12.7285 58.0039C12.7285 57.7923 12.7008 57.6149 12.6455 57.4717C12.5869 57.3285 12.5088 57.2194 12.4111 57.1445C12.3102 57.0697 12.1963 57.0322 12.0693 57.0322ZM8.2168 50.4277L9.07617 50.4277L9.07617 53.4062L8.2168 53.4062L8.2168 50.4277ZM6.92285 52.5469L6.92285 51.3701L12.04 51.3701C12.2028 51.3701 12.3281 51.3473 12.416 51.3018C12.5007 51.2529 12.5576 51.1862 12.5869 51.1016C12.6162 51.0169 12.6309 50.9176 12.6309 50.8037C12.6309 50.7223 12.626 50.6442 12.6162 50.5693C12.6064 50.4945 12.5967 50.4342 12.5869 50.3887L13.4854 50.3838C13.5146 50.4814 13.5407 50.5954 13.5635 50.7256C13.5863 50.8525 13.5977 50.999 13.5977 51.165C13.5977 51.4352 13.5505 51.6745 13.4561 51.8828C13.3584 52.0911 13.2005 52.2539 12.9824 52.3711C12.7643 52.4883 12.4746 52.5469 12.1133 52.5469L6.92285 52.5469ZM12.4404 44.541L9.9209 44.541C9.7321 44.541 9.56933 44.5752 9.43262 44.6436C9.2959 44.7119 9.1901 44.8161 9.11523 44.9561C9.04036 45.0928 9.00293 45.2653 9.00293 45.4736C9.00293 45.6657 9.03548 45.8317 9.10058 45.9717C9.16569 46.1117 9.25358 46.2207 9.36426 46.2988C9.47493 46.377 9.60026 46.416 9.74023 46.416L9.74023 47.5879C9.5319 47.5879 9.33008 47.5374 9.13476 47.4365C8.93945 47.3356 8.7653 47.1891 8.6123 46.9971C8.45931 46.805 8.33887 46.5755 8.25098 46.3086C8.16308 46.0417 8.11914 45.7422 8.11914 45.4102C8.11914 45.013 8.18587 44.6615 8.31933 44.3555C8.4528 44.0462 8.65462 43.8037 8.9248 43.6279C9.19173 43.4489 9.52702 43.3594 9.93066 43.3594L12.2793 43.3594C12.5202 43.3594 12.7367 43.3431 12.9287 43.3105C13.1175 43.2747 13.2819 43.2243 13.4219 43.1592L13.5 43.1592L13.5 44.3652C13.373 44.4206 13.2119 44.4645 13.0166 44.4971C12.818 44.5264 12.626 44.541 12.4404 44.541ZM10.2871 44.3701L11.0146 44.3604L11.0146 45.2051C11.0146 45.4232 11.0358 45.6152 11.0781 45.7812C11.1172 45.9473 11.1758 46.0856 11.2539 46.1963C11.332 46.307 11.4264 46.39 11.5371 46.4453C11.6478 46.5007 11.7731 46.5283 11.9131 46.5283C12.0531 46.5283 12.1816 46.4958 12.2988 46.4307C12.4128 46.3656 12.5023 46.2712 12.5674 46.1475C12.6325 46.0205 12.665 45.8675 12.665 45.6885C12.665 45.4476 12.6162 45.2376 12.5186 45.0586C12.4176 44.8763 12.2956 44.7331 12.1523 44.6289C12.0059 44.5247 11.8675 44.4694 11.7373 44.4629L12.2598 44.082C12.3932 44.1211 12.5365 44.1878 12.6895 44.2822C12.8424 44.3766 12.9889 44.5003 13.1289 44.6533C13.2656 44.8031 13.3779 44.9837 13.4658 45.1953C13.5537 45.4036 13.5977 45.6445 13.5977 45.918C13.5977 46.263 13.5293 46.5706 13.3926 46.8408C13.2526 47.111 13.0654 47.3226 12.8311 47.4756C12.5934 47.6286 12.3249 47.7051 12.0254 47.7051C11.7454 47.7051 11.498 47.653 11.2832 47.5488C11.0651 47.4414 10.8828 47.2852 10.7363 47.0801C10.5898 46.8717 10.4792 46.6178 10.4043 46.3184C10.3262 46.0189 10.2871 45.6771 10.2871 45.293L10.2871 44.3701ZM8.2168 36.7451L8.2168 35.6758L13.3535 35.6758C13.8288 35.6758 14.2324 35.7767 14.5645 35.9785C14.8965 36.1803 15.1488 36.4619 15.3213 36.8232C15.4971 37.1846 15.585 37.6029 15.585 38.0781C15.585 38.2799 15.5557 38.5046 15.4971 38.752C15.4385 38.9961 15.3441 39.2337 15.2139 39.4648C15.0869 39.6927 14.9193 39.8831 14.7109 40.0361L14.0176 39.4844C14.2422 39.2956 14.4066 39.0872 14.5107 38.8594C14.6149 38.6315 14.667 38.3923 14.667 38.1416C14.667 37.8714 14.6165 37.6419 14.5156 37.4531C14.418 37.2611 14.2731 37.113 14.0811 37.0088C13.889 36.9046 13.6546 36.8525 13.3779 36.8525L9.41308 36.8525L8.2168 36.7451ZM10.917 40.334L10.8145 40.334C10.4141 40.334 10.0495 40.2852 9.7207 40.1875C9.38867 40.0898 9.10384 39.9499 8.86621 39.7676C8.62532 39.5853 8.4414 39.3639 8.31445 39.1035C8.18424 38.8431 8.11914 38.5485 8.11914 38.2197C8.11914 37.8779 8.18099 37.5866 8.30469 37.3457C8.42838 37.1016 8.60579 36.8981 8.83691 36.7354C9.06478 36.5726 9.33821 36.4456 9.65722 36.3545C9.97298 36.2601 10.3245 36.1901 10.7119 36.1445L11.0391 36.1445C11.4167 36.1868 11.7617 36.2585 12.0742 36.3594C12.3867 36.4603 12.6569 36.5937 12.8848 36.7598C13.1126 36.9258 13.2884 37.1309 13.4121 37.375C13.5358 37.6159 13.5977 37.9007 13.5977 38.2295C13.5977 38.5518 13.5309 38.8431 13.3975 39.1035C13.264 39.3607 13.0768 39.582 12.8359 39.7676C12.5951 39.9499 12.3118 40.0898 11.9863 40.1875C11.6576 40.2852 11.3011 40.334 10.917 40.334ZM10.8145 39.1572L10.917 39.1572C11.1579 39.1572 11.3825 39.1344 11.5908 39.0889C11.7992 39.04 11.9831 38.9668 12.1426 38.8691C12.2988 38.7682 12.4225 38.6413 12.5137 38.4883C12.6016 38.332 12.6455 38.1481 12.6455 37.9365C12.6455 37.6598 12.5869 37.4336 12.4697 37.2578C12.3525 37.0788 12.1947 36.9421 11.9961 36.8477C11.7943 36.75 11.5697 36.6816 11.3223 36.6426L10.4385 36.6426C10.2464 36.6621 10.0674 36.7028 9.90137 36.7646C9.73535 36.8232 9.59049 36.903 9.4668 37.0039C9.33984 37.1048 9.24219 37.2318 9.17383 37.3848C9.10221 37.5378 9.0664 37.7184 9.0664 37.9268C9.0664 38.1383 9.11198 38.3223 9.20312 38.4785C9.29427 38.6348 9.41959 38.7633 9.5791 38.8643C9.73861 38.9619 9.92415 39.0352 10.1357 39.084C10.3473 39.1328 10.5736 39.1572 10.8145 39.1572ZM9.22265 31.2734L13.5 31.2734L13.5 32.4502L8.2168 32.4502L8.2168 31.3271L9.22265 31.2734ZM8.18262 29.6572L9.27637 29.667C9.26334 29.7386 9.25358 29.8167 9.24707 29.9014C9.24056 29.9827 9.2373 30.0641 9.2373 30.1455C9.2373 30.3473 9.2666 30.5247 9.32519 30.6777C9.38053 30.8307 9.46191 30.9593 9.56933 31.0635C9.6735 31.1644 9.80045 31.2425 9.95019 31.2979C10.0999 31.3532 10.2676 31.3857 10.4531 31.3955L10.4727 31.6641C10.1406 31.6641 9.83301 31.6315 9.5498 31.5664C9.2666 31.5013 9.01758 31.4036 8.80273 31.2734C8.58789 31.14 8.42025 30.974 8.2998 30.7754C8.17936 30.5736 8.11914 30.3408 8.11914 30.0771C8.11914 30.0055 8.12565 29.929 8.13867 29.8477C8.15169 29.763 8.16634 29.6995 8.18262 29.6572ZM12.4404 24.1172L9.9209 24.1172C9.73209 24.1172 9.56933 24.1514 9.43262 24.2197C9.2959 24.2881 9.1901 24.3923 9.11523 24.5322C9.04036 24.6689 9.00293 24.8415 9.00293 25.0498C9.00293 25.2419 9.03548 25.4079 9.10058 25.5479C9.16569 25.6878 9.25358 25.7969 9.36426 25.875C9.47493 25.9531 9.60026 25.9922 9.74023 25.9922L9.74023 27.1641C9.5319 27.1641 9.33008 27.1136 9.13476 27.0127C8.93945 26.9118 8.7653 26.7653 8.6123 26.5732C8.45931 26.3812 8.33887 26.1517 8.25097 25.8848C8.16308 25.6178 8.11914 25.3184 8.11914 24.9863C8.11914 24.5892 8.18587 24.2376 8.31933 23.9316C8.4528 23.6224 8.65462 23.3799 8.9248 23.2041C9.19173 23.0251 9.52702 22.9355 9.93066 22.9355L12.2793 22.9355C12.5202 22.9355 12.7367 22.9193 12.9287 22.8867C13.1175 22.8509 13.2819 22.8005 13.4219 22.7354L13.5 22.7354L13.5 23.9414C13.373 23.9967 13.2119 24.0407 13.0166 24.0732C12.818 24.1025 12.626 24.1172 12.4404 24.1172ZM10.2871 23.9463L11.0146 23.9365L11.0146 24.7812C11.0146 24.9993 11.0358 25.1914 11.0781 25.3574C11.1172 25.5234 11.1758 25.6618 11.2539 25.7725C11.332 25.8831 11.4264 25.9661 11.5371 26.0215C11.6478 26.0768 11.7731 26.1045 11.9131 26.1045C12.0531 26.1045 12.1816 26.0719 12.2988 26.0068C12.4128 25.9417 12.5023 25.8473 12.5674 25.7236C12.6325 25.5967 12.665 25.4437 12.665 25.2646C12.665 25.0238 12.6162 24.8138 12.5186 24.6348C12.4176 24.4525 12.2956 24.3092 12.1523 24.2051C12.0059 24.1009 11.8675 24.0456 11.7373 24.0391L12.2598 23.6582C12.3932 23.6973 12.5365 23.764 12.6895 23.8584C12.8424 23.9528 12.9889 24.0765 13.1289 24.2295C13.2656 24.3792 13.3779 24.5599 13.4658 24.7715C13.5537 24.9798 13.5977 25.2207 13.5977 25.4941C13.5977 25.8392 13.5293 26.1468 13.3926 26.417C13.2526 26.6872 13.0654 26.8988 12.8311 27.0518C12.5934 27.2048 12.3249 27.2812 12.0254 27.2812C11.7454 27.2812 11.498 27.2292 11.2832 27.125C11.0651 27.0176 10.8828 26.8613 10.7363 26.6562C10.5898 26.4479 10.4792 26.194 10.4043 25.8945C10.3262 25.5951 10.2871 25.2533 10.2871 24.8691L10.2871 23.9463ZM9.29101 18.5283L13.5 18.5283L13.5 19.7051L8.21679 19.7051L8.21679 18.5967L9.29101 18.5283ZM10.6631 18.7187L10.6582 19.1191C10.2936 19.1191 9.9567 19.0736 9.64746 18.9824C9.33821 18.8913 9.06966 18.7578 8.84179 18.582C8.61067 18.4062 8.43327 18.1882 8.30957 17.9277C8.18261 17.6641 8.11914 17.3597 8.11914 17.0146C8.11914 16.7738 8.15495 16.554 8.22656 16.3555C8.29492 16.1536 8.40397 15.9795 8.55371 15.833C8.70345 15.6833 8.89551 15.5693 9.12988 15.4912C9.36426 15.4098 9.64746 15.3691 9.97949 15.3691L13.5 15.3691L13.5 16.5459L10.082 16.5459C9.82487 16.5459 9.62304 16.585 9.47656 16.6631C9.33008 16.738 9.22591 16.847 9.16406 16.9902C9.09896 17.1302 9.0664 17.2979 9.0664 17.4932C9.0664 17.7145 9.10872 17.9033 9.19336 18.0596C9.27799 18.2126 9.39355 18.3379 9.54004 18.4355C9.68652 18.5332 9.85579 18.6048 10.0478 18.6504C10.2399 18.696 10.445 18.7187 10.6631 18.7187ZM10.3506 15.4424L10.4727 15.9941C10.1536 15.9941 9.85254 15.9502 9.56933 15.8623C9.28288 15.7712 9.03222 15.6393 8.81738 15.4668C8.59928 15.291 8.42838 15.0745 8.30468 14.8174C8.18099 14.5602 8.11914 14.2656 8.11914 13.9336C8.11914 13.6634 8.15657 13.4225 8.23144 13.2109C8.30306 12.9961 8.41699 12.8138 8.57324 12.6641C8.72949 12.5143 8.93294 12.4004 9.18359 12.3223C9.43099 12.2441 9.73047 12.2051 10.082 12.2051L13.5 12.2051L13.5 13.3867L10.0771 13.3867C9.81022 13.3867 9.60351 13.4258 9.45703 13.5039C9.31054 13.5788 9.20963 13.6862 9.15429 13.8262C9.0957 13.9661 9.0664 14.1338 9.0664 14.3291C9.0664 14.5114 9.10058 14.6725 9.16894 14.8125C9.23405 14.9492 9.32682 15.0648 9.44726 15.1592C9.56445 15.2536 9.69954 15.3252 9.85254 15.374C10.0055 15.4196 10.1715 15.4424 10.3506 15.4424Z" fill="white" fill-opacity="0.42"/>
</svg>
