<svg width="22" height="19" viewBox="0 0 22 19" fill="none" xmlns="http://www.w3.org/2000/svg">
<path d="M14.882 4.02344C14.8607 0.858087 11.2563 -0.923095 8.76776 0.989258L1.69843 6.42285C-0.347383 7.99585 -0.284101 11.1295 1.80585 12.6133L1.80487 12.6143L8.89471 17.8555C11.4907 19.7743 15.1411 17.755 14.9523 14.5303L14.882 4.02344ZM9.44061 1.875C11.1257 0.573994 13.6047 1.68322 13.7658 3.82129L13.7736 4.03125L13.8439 14.5674V14.5791L14.0441 14.5664L13.8449 14.5791C13.9915 16.8582 11.4134 18.3354 9.55096 16.957L2.46112 11.7168L2.45819 11.7139C1.02147 10.6959 0.913758 8.57336 2.23846 7.41699L2.37128 7.30859L9.44061 1.875Z" fill="white" stroke="white" stroke-width="0.4"/>
<rect x="-0.7" y="0.7" width="3.6" height="16.6" rx="1.8" transform="matrix(-1 0 0 1 20.3589 0.401367)" stroke="white" stroke-width="1.4"/>
</svg>
