<svg width="22" height="21" viewBox="0 0 22 21" fill="none" xmlns="http://www.w3.org/2000/svg">
<path d="M12.1614 17.6231C12.1487 17.6441 12.1403 17.6672 12.1276 17.6861C12.0958 17.7323 12.062 17.7764 12.0218 17.8142L9.06013 20.7543C8.89513 20.9181 8.67938 21 8.46149 21C8.2436 21 8.02783 20.9181 7.86285 20.7543C7.53283 20.4267 7.53283 19.8954 7.86285 19.5657L9.37958 18.06H7.61536C3.41629 18.06 0 14.6686 0 10.5001C0 6.33155 3.41629 2.94012 7.61536 2.94012C8.08287 2.94012 8.46152 3.31601 8.46152 3.78012C8.46152 4.24422 8.08287 4.62011 7.61536 4.62011C4.34935 4.62011 1.6923 7.25769 1.6923 10.5001C1.6923 13.7424 4.34922 16.38 7.61536 16.38H9.37958L7.86285 14.8743C7.53283 14.5467 7.53283 14.0154 7.86285 13.6857C8.19286 13.3581 8.73014 13.3581 9.06016 13.6857L12.0218 16.6258C12.062 16.6657 12.0959 16.7077 12.1276 16.7539C12.1403 16.7749 12.1509 16.7959 12.1614 16.8169C12.1762 16.8442 12.1932 16.8694 12.2037 16.8988C12.2143 16.9261 12.2228 16.9555 12.2312 16.9849C12.2376 17.008 12.2482 17.0311 12.2524 17.0563C12.2736 17.1655 12.2736 17.2768 12.2524 17.386C12.2482 17.4112 12.2376 17.4343 12.2312 17.4574C12.2228 17.4868 12.2164 17.5141 12.2037 17.5435C12.1932 17.5708 12.1762 17.5958 12.1614 17.6231ZM14.3847 2.94H12.6204L14.1372 1.43431C14.4672 1.10669 14.4672 0.575416 14.1372 0.245708C13.8072 -0.0819027 13.2699 -0.0819027 12.9399 0.245708L9.9782 3.18582C9.93801 3.22572 9.90416 3.26772 9.87244 3.31392C9.85974 3.33492 9.84917 3.35592 9.83859 3.37692C9.82378 3.40422 9.80686 3.42942 9.79628 3.45672C9.78571 3.48402 9.77724 3.51342 9.76878 3.54282C9.76244 3.56592 9.75186 3.58902 9.74763 3.61422C9.72648 3.72342 9.72648 3.83471 9.74763 3.94392C9.75186 3.96912 9.76244 3.99222 9.76878 4.01532C9.77724 4.04472 9.78359 4.07202 9.79628 4.10142C9.80897 4.12872 9.82378 4.15602 9.83859 4.18122C9.85128 4.20222 9.85974 4.22532 9.87244 4.24422C9.90417 4.29042 9.93801 4.33452 9.9782 4.37232L12.9399 7.31243C13.1049 7.47833 13.3228 7.56023 13.5385 7.56023C13.7543 7.56023 13.9722 7.47833 14.1372 7.31453C14.4672 6.98692 14.4672 6.45564 14.1372 6.12593L12.6204 4.62024H14.3846C17.6506 4.62024 20.3077 7.25782 20.3077 10.5002C20.3077 13.7426 17.6508 16.3801 14.3846 16.3801C13.9171 16.3801 13.5385 16.756 13.5385 17.2201C13.5385 17.6842 13.9171 18.0601 14.3846 18.0601C18.5837 18.0601 22 14.6687 22 10.5002C22 6.33167 18.5837 2.94 14.3847 2.94Z" fill="#F9F9F9"/>
</svg>
