<svg width="8" height="236" viewBox="0 0 8 236" fill="none" xmlns="http://www.w3.org/2000/svg">
<path d="M0.390625 234.65L0.390625 233.557L5.87402 231.501L0.390625 229.45L0.390625 228.356L7.5 231.071L7.5 231.94L0.390625 234.65ZM0.390625 235.148L0.390625 234.108L5.13672 233.928L7.5 233.928L7.5 235.148L0.390625 235.148ZM0.390625 228.898L0.390625 227.854L7.5 227.854L7.5 229.079L5.13672 229.079L0.390625 228.898ZM2.2168 211.256L7.5 211.256L7.5 212.437L2.2168 212.437L2.2168 211.256ZM0.830077 212.516C0.651041 212.516 0.502929 212.457 0.385741 212.34C0.265298 212.219 0.205077 212.053 0.205077 211.842C0.205077 211.633 0.265298 211.469 0.385741 211.349C0.502929 211.228 0.651041 211.168 0.830077 211.168C1.00586 211.168 1.15234 211.228 1.26953 211.349C1.38672 211.469 1.44531 211.633 1.44531 211.842C1.44531 212.053 1.38672 212.219 1.26953 212.34C1.15234 212.457 1.00586 212.516 0.830077 212.516ZM-1.79614e-06 194.78L7.5 194.78L7.5 195.962L-1.74449e-06 195.962L-1.79614e-06 194.78ZM2.21679 191.499L4.76562 193.799L6.05469 195.059L5.05859 195.366L3.88183 194.414L2.21679 192.92L2.21679 191.499ZM7.5 192.666L5.01953 194.38L4.19433 193.638L7.5 191.304L7.5 192.666ZM7.59765 174.521C7.59765 174.911 7.53418 175.264 7.40722 175.58C7.27702 175.893 7.09635 176.16 6.86523 176.381C6.63411 176.599 6.3623 176.767 6.0498 176.884C5.7373 177.001 5.40039 177.06 5.03906 177.06L4.84375 177.06C4.43034 177.06 4.05599 176.999 3.7207 176.879C3.38541 176.758 3.09896 176.591 2.86133 176.376C2.62044 176.161 2.43652 175.907 2.30957 175.614C2.18261 175.321 2.11914 175.004 2.11914 174.662C2.11914 174.285 2.18261 173.954 2.30957 173.671C2.43652 173.388 2.61556 173.153 2.84668 172.968C3.07454 172.779 3.34635 172.639 3.66211 172.548C3.97786 172.453 4.32617 172.406 4.70703 172.406L5.20996 172.406L5.20996 176.488L4.36523 176.488L4.36523 173.568L4.27246 173.568C4.06087 173.575 3.8623 173.617 3.67676 173.695C3.49121 173.77 3.34147 173.886 3.22754 174.042C3.1136 174.198 3.05664 174.407 3.05664 174.667C3.05664 174.862 3.09896 175.036 3.18359 175.189C3.26497 175.339 3.38379 175.465 3.54004 175.565C3.69629 175.666 3.88509 175.744 4.10644 175.8C4.32454 175.852 4.57031 175.878 4.84375 175.878L5.03906 175.878C5.27018 175.878 5.48502 175.847 5.68359 175.785C5.8789 175.72 6.0498 175.626 6.19629 175.502C6.34277 175.378 6.45833 175.229 6.54297 175.053C6.62435 174.877 6.66504 174.677 6.66504 174.452C6.66504 174.169 6.60807 173.917 6.49414 173.695C6.38021 173.474 6.21907 173.282 6.01074 173.119L6.61133 172.499C6.77734 172.613 6.93685 172.761 7.08984 172.943C7.23958 173.126 7.36165 173.349 7.45605 173.612C7.55045 173.873 7.59765 174.175 7.59765 174.521ZM5.66894 137.141C5.52246 137.141 5.39225 137.163 5.27832 137.209C5.16438 137.251 5.06022 137.328 4.96582 137.438C4.87141 137.549 4.78027 137.705 4.69238 137.907C4.60123 138.106 4.50846 138.36 4.41406 138.669C4.30989 139.007 4.19433 139.32 4.06738 139.606C3.93717 139.89 3.78743 140.137 3.61816 140.349C3.44563 140.56 3.24869 140.725 3.02734 140.842C2.80273 140.959 2.54394 141.018 2.25097 141.018C1.96126 141.018 1.69759 140.957 1.45996 140.837C1.22233 140.713 1.01725 140.539 0.844722 140.314C0.668941 140.087 0.53385 139.818 0.439449 139.509C0.341793 139.2 0.292965 138.858 0.292964 138.483C0.292964 137.956 0.390621 137.502 0.585933 137.121C0.781246 136.737 1.04329 136.442 1.37207 136.237C1.70084 136.029 2.0638 135.925 2.46093 135.925L2.46093 137.141C2.22656 137.141 2.01985 137.191 1.84082 137.292C1.65852 137.39 1.5153 137.539 1.41113 137.741C1.30696 137.94 1.25488 138.192 1.25488 138.498C1.25488 138.788 1.29882 139.029 1.38671 139.221C1.47461 139.413 1.59342 139.556 1.74316 139.65C1.8929 139.745 2.06217 139.792 2.25097 139.792C2.38444 139.792 2.50651 139.761 2.61718 139.699C2.72461 139.637 2.82552 139.543 2.91992 139.416C3.01106 139.289 3.09733 139.13 3.17871 138.937C3.26009 138.745 3.33821 138.519 3.41308 138.259C3.53027 137.865 3.66048 137.521 3.80371 137.229C3.94368 136.936 4.10319 136.691 4.28222 136.496C4.46126 136.301 4.66471 136.154 4.89257 136.057C5.11718 135.959 5.37272 135.91 5.65918 135.91C5.95865 135.91 6.22884 135.97 6.46972 136.091C6.70735 136.211 6.9108 136.384 7.08007 136.608C7.24609 136.83 7.37467 137.097 7.46582 137.409C7.55371 137.718 7.59765 138.063 7.59765 138.444C7.59765 138.786 7.55208 139.123 7.46093 139.455C7.36979 139.784 7.23144 140.083 7.04589 140.354C6.85709 140.624 6.62272 140.839 6.34277 140.998C6.05957 141.158 5.72916 141.237 5.35156 141.237L5.35156 140.012C5.58268 140.012 5.77962 139.973 5.94238 139.895C6.10514 139.813 6.2386 139.701 6.34277 139.558C6.44368 139.414 6.51855 139.248 6.56738 139.06C6.61621 138.868 6.64062 138.662 6.64062 138.444C6.64062 138.158 6.59993 137.919 6.51855 137.727C6.43717 137.531 6.32324 137.385 6.17675 137.287C6.03027 137.189 5.861 137.141 5.66894 137.141ZM6.44042 117.965L3.92089 117.965C3.73209 117.965 3.56933 117.999 3.43261 118.067C3.29589 118.136 3.1901 118.24 3.11523 118.38C3.04036 118.517 3.00292 118.689 3.00292 118.897C3.00292 119.09 3.03548 119.256 3.10058 119.396C3.16569 119.535 3.25358 119.645 3.36425 119.723C3.47493 119.801 3.60026 119.84 3.74023 119.84L3.74023 121.012C3.5319 121.012 3.33007 120.961 3.13476 120.86C2.93945 120.759 2.76529 120.613 2.6123 120.421C2.4593 120.229 2.33886 119.999 2.25097 119.732C2.16308 119.465 2.11914 119.166 2.11914 118.834C2.11914 118.437 2.18587 118.085 2.31933 117.779C2.45279 117.47 2.65462 117.228 2.9248 117.052C3.19173 116.873 3.52701 116.783 3.93066 116.783L6.27929 116.783C6.52018 116.783 6.73665 116.767 6.92871 116.734C7.11751 116.699 7.2819 116.648 7.42187 116.583L7.49999 116.583L7.49999 117.789C7.37304 117.844 7.21191 117.888 7.0166 117.921C6.81803 117.95 6.62597 117.965 6.44042 117.965ZM4.2871 117.794L5.01464 117.784L5.01464 118.629C5.01464 118.847 5.0358 119.039 5.07812 119.205C5.11718 119.371 5.17578 119.509 5.2539 119.62C5.33203 119.731 5.42643 119.814 5.5371 119.869C5.64778 119.924 5.77311 119.952 5.91308 119.952C6.05305 119.952 6.18164 119.92 6.29882 119.854C6.41276 119.789 6.50227 119.695 6.56738 119.571C6.63248 119.444 6.66503 119.291 6.66503 119.112C6.66503 118.871 6.61621 118.661 6.51855 118.482C6.41764 118.3 6.29557 118.157 6.15234 118.053C6.00585 117.949 5.86751 117.893 5.7373 117.887L6.25976 117.506C6.39322 117.545 6.53645 117.612 6.68945 117.706C6.84244 117.8 6.98893 117.924 7.1289 118.077C7.26562 118.227 7.37792 118.408 7.46582 118.619C7.55371 118.827 7.59765 119.068 7.59765 119.342C7.59765 119.687 7.52929 119.994 7.39257 120.265C7.2526 120.535 7.06542 120.746 6.83105 120.899C6.59342 121.052 6.32486 121.129 6.02539 121.129C5.74544 121.129 5.49804 121.077 5.2832 120.973C5.0651 120.865 4.88281 120.709 4.73632 120.504C4.58984 120.296 4.47916 120.042 4.40429 119.742C4.32617 119.443 4.2871 119.101 4.2871 118.717L4.2871 117.794ZM-5.87146e-06 101.548L-5.92289e-06 100.371L6.37206 100.371L7.49999 100.483L7.49999 101.548L-5.87146e-06 101.548ZM4.80956 96.9238L4.9121 96.9238C5.30273 96.9238 5.66243 96.9678 5.9912 97.0557C6.31673 97.1403 6.59993 97.2705 6.84081 97.4463C7.0817 97.6188 7.26887 97.8337 7.40234 98.0908C7.53255 98.3447 7.59765 98.6393 7.59765 98.9746C7.59765 99.3034 7.5358 99.5898 7.4121 99.834C7.28841 100.078 7.11262 100.283 6.88476 100.449C6.6569 100.612 6.38509 100.744 6.06933 100.845C5.75357 100.946 5.40527 101.017 5.02441 101.06L4.69726 101.06C4.31315 101.017 3.96484 100.946 3.65234 100.845C3.33658 100.744 3.06477 100.612 2.83691 100.449C2.60579 100.283 2.42838 100.08 2.30468 99.8389C2.18098 99.5947 2.11913 99.3099 2.11913 98.9844C2.11913 98.6458 2.18424 98.348 2.31445 98.0908C2.44466 97.8304 2.6302 97.6139 2.87109 97.4414C3.10872 97.2689 3.39192 97.1403 3.7207 97.0557C4.04947 96.9678 4.41243 96.9238 4.80956 96.9238ZM4.9121 98.1006L4.80956 98.1006C4.57193 98.1006 4.34895 98.1201 4.14062 98.1592C3.92903 98.1982 3.74348 98.2633 3.58398 98.3545C3.42447 98.4424 3.29915 98.5628 3.208 98.7158C3.1136 98.8656 3.0664 99.0527 3.0664 99.2773C3.0664 99.4857 3.10221 99.6647 3.17382 99.8145C3.24544 99.9642 3.34309 100.09 3.46679 100.19C3.59049 100.291 3.73372 100.371 3.89648 100.43C4.05924 100.485 4.23502 100.522 4.42382 100.542L5.30761 100.542C5.55175 100.513 5.77636 100.451 5.98144 100.356C6.18326 100.259 6.34602 100.122 6.46972 99.9463C6.59016 99.7705 6.65038 99.5443 6.65038 99.2676C6.65038 99.0495 6.60644 98.8656 6.51855 98.7158C6.43066 98.5661 6.30859 98.4473 6.15234 98.3594C5.99283 98.2682 5.80729 98.2031 5.5957 98.1641C5.38411 98.1217 5.15624 98.1006 4.9121 98.1006ZM6.44042 78.9492L3.92089 78.9492C3.73209 78.9492 3.56933 78.9834 3.43261 79.0518C3.29589 79.1201 3.1901 79.2243 3.11523 79.3643C3.04036 79.501 3.00292 79.6735 3.00292 79.8818C3.00292 80.0739 3.03547 80.2399 3.10058 80.3799C3.16568 80.5199 3.25357 80.6289 3.36425 80.707C3.47493 80.7852 3.60025 80.8242 3.74023 80.8242L3.74023 81.9961C3.53189 81.9961 3.33007 81.9456 3.13476 81.8447C2.93945 81.7438 2.76529 81.5973 2.6123 81.4053C2.4593 81.2132 2.33886 80.9837 2.25097 80.7168C2.16308 80.4499 2.11913 80.1504 2.11913 79.8184C2.11913 79.4212 2.18587 79.0697 2.31933 78.7637C2.45279 78.4544 2.65462 78.2119 2.9248 78.0361C3.19172 77.8571 3.52701 77.7676 3.93066 77.7676L6.27929 77.7676C6.52018 77.7676 6.73665 77.7513 6.9287 77.7187C7.11751 77.6829 7.28189 77.6325 7.42187 77.5674L7.49999 77.5674L7.49999 78.7734C7.37304 78.8288 7.21191 78.8727 7.01659 78.9053C6.81803 78.9346 6.62597 78.9492 6.44042 78.9492ZM4.2871 78.7783L5.01464 78.7686L5.01464 79.6133C5.01464 79.8314 5.0358 80.0234 5.07812 80.1895C5.11718 80.3555 5.17577 80.4938 5.2539 80.6045C5.33202 80.7152 5.42643 80.7982 5.5371 80.8535C5.64778 80.9089 5.77311 80.9365 5.91308 80.9365C6.05305 80.9365 6.18163 80.904 6.29882 80.8389C6.41275 80.7738 6.50227 80.6794 6.56738 80.5557C6.63248 80.4287 6.66503 80.2757 6.66503 80.0967C6.66503 79.8558 6.6162 79.6458 6.51855 79.4668C6.41764 79.2845 6.29557 79.1413 6.15234 79.0371C6.00585 78.9329 5.86751 78.8776 5.7373 78.8711L6.25976 78.4902C6.39322 78.5293 6.53645 78.596 6.68945 78.6904C6.84244 78.7848 6.98893 78.9085 7.1289 79.0615C7.26562 79.2113 7.37792 79.3919 7.46581 79.6035C7.5537 79.8118 7.59765 80.0527 7.59765 80.3262C7.59765 80.6712 7.52929 80.9788 7.39257 81.249C7.2526 81.5192 7.06542 81.7308 6.83105 81.8838C6.59342 82.0368 6.32486 82.1133 6.02538 82.1133C5.74544 82.1133 5.49804 82.0612 5.2832 81.957C5.0651 81.8496 4.88281 81.6934 4.73632 81.4883C4.58984 81.2799 4.47916 81.026 4.40429 80.7266C4.32617 80.4271 4.2871 80.0853 4.2871 79.7012L4.2871 78.7783ZM6.40624 59.3145L-7.71754e-06 59.3145L-7.76919e-06 58.1328L7.49999 58.1328L7.49999 59.2021L6.40624 59.3145ZM4.91698 62.752L4.81445 62.752C4.41405 62.752 4.04947 62.7048 3.7207 62.6104C3.38866 62.516 3.10383 62.3792 2.8662 62.2002C2.62532 62.0212 2.4414 61.8031 2.31445 61.5459C2.18424 61.2887 2.11913 60.999 2.11913 60.6768C2.11913 60.3577 2.18098 60.0778 2.30468 59.8369C2.42838 59.596 2.60579 59.391 2.83691 59.2217C3.06477 59.0524 3.33821 58.9173 3.65722 58.8164C3.97297 58.7155 4.32454 58.6439 4.71191 58.6016L5.03905 58.6016C5.41666 58.6439 5.76171 58.7155 6.07421 58.8164C6.38671 58.9173 6.65689 59.0524 6.88476 59.2217C7.11262 59.391 7.2884 59.5977 7.4121 59.8418C7.5358 60.0827 7.59765 60.3643 7.59765 60.6865C7.59765 61.0055 7.53092 61.2936 7.39745 61.5508C7.26399 61.8047 7.07682 62.0212 6.83593 62.2002C6.59504 62.3792 6.31184 62.516 5.98632 62.6104C5.65754 62.7048 5.3011 62.752 4.91698 62.752ZM4.81445 61.5752L4.91698 61.5752C5.15787 61.5752 5.38248 61.554 5.59081 61.5117C5.79915 61.4661 5.98307 61.3962 6.14257 61.3018C6.29882 61.2074 6.42252 61.0853 6.51366 60.9355C6.60155 60.7826 6.6455 60.6003 6.6455 60.3887C6.6455 60.1217 6.58691 59.902 6.46972 59.7295C6.35253 59.557 6.19465 59.4219 5.99609 59.3242C5.79426 59.2233 5.56965 59.1549 5.32226 59.1191L4.43847 59.1191C4.24641 59.1387 4.06738 59.1794 3.90136 59.2412C3.73534 59.2998 3.59049 59.3796 3.46679 59.4805C3.33984 59.5814 3.24218 59.7067 3.17382 59.8564C3.10221 60.0029 3.0664 60.1771 3.0664 60.3789C3.0664 60.5937 3.11197 60.776 3.20312 60.9258C3.29426 61.0755 3.41959 61.1992 3.57909 61.2969C3.7386 61.3913 3.92415 61.4613 4.13573 61.5068C4.34732 61.5524 4.57356 61.5752 4.81445 61.5752ZM6.44042 39.9238L3.92089 39.9238C3.73209 39.9238 3.56933 39.958 3.43261 40.0264C3.29589 40.0947 3.1901 40.1989 3.11523 40.3389C3.04036 40.4756 3.00292 40.6481 3.00292 40.8564C3.00292 41.0485 3.03547 41.2145 3.10058 41.3545C3.16568 41.4945 3.25357 41.6035 3.36425 41.6816C3.47493 41.7598 3.60025 41.7988 3.74023 41.7988L3.74023 42.9707C3.53189 42.9707 3.33007 42.9202 3.13476 42.8193C2.93944 42.7184 2.76529 42.5719 2.6123 42.3799C2.4593 42.1878 2.33886 41.9583 2.25097 41.6914C2.16308 41.4245 2.11913 41.125 2.11913 40.793C2.11913 40.3958 2.18586 40.0443 2.31933 39.7383C2.45279 39.429 2.65461 39.1865 2.9248 39.0107C3.19172 38.8317 3.52701 38.7422 3.93066 38.7422L6.27929 38.7422C6.52017 38.7422 6.73665 38.7259 6.9287 38.6934C7.1175 38.6576 7.28189 38.6071 7.42187 38.542L7.49999 38.542L7.49999 39.748C7.37304 39.8034 7.21191 39.8473 7.01659 39.8799C6.81803 39.9092 6.62597 39.9238 6.44042 39.9238ZM4.2871 39.7529L5.01464 39.7432L5.01464 40.5879C5.01464 40.806 5.0358 40.998 5.07812 41.1641C5.11718 41.3301 5.17577 41.4684 5.2539 41.5791C5.33202 41.6898 5.42642 41.7728 5.5371 41.8281C5.64778 41.8835 5.7731 41.9111 5.91308 41.9111C6.05305 41.9111 6.18163 41.8786 6.29882 41.8135C6.41275 41.7484 6.50227 41.654 6.56737 41.5303C6.63248 41.4033 6.66503 41.2503 6.66503 41.0713C6.66503 40.8304 6.6162 40.6204 6.51855 40.4414C6.41763 40.2591 6.29556 40.1159 6.15234 40.0117C6.00585 39.9076 5.8675 39.8522 5.7373 39.8457L6.25976 39.4648C6.39322 39.5039 6.53645 39.5706 6.68944 39.665C6.84244 39.7594 6.98892 39.8831 7.1289 40.0361C7.26562 40.1859 7.37792 40.3665 7.46581 40.5781C7.5537 40.7865 7.59765 41.0273 7.59765 41.3008C7.59765 41.6458 7.52929 41.9535 7.39257 42.2236C7.2526 42.4938 7.06542 42.7054 6.83105 42.8584C6.59342 43.0114 6.32486 43.0879 6.02538 43.0879C5.74543 43.0879 5.49804 43.0358 5.28319 42.9316C5.0651 42.8242 4.8828 42.668 4.73632 42.4629C4.58984 42.2546 4.47916 42.0007 4.40429 41.7012C4.32616 41.4017 4.2871 41.0599 4.2871 40.6758L4.2871 39.7529ZM6.06933 20.5479C5.95214 20.5479 5.84634 20.5771 5.75194 20.6357C5.65429 20.6943 5.5664 20.8066 5.48827 20.9727C5.41015 21.1354 5.33853 21.3763 5.27343 21.6953C5.21158 21.9753 5.13834 22.2324 5.0537 22.4668C4.96581 22.6979 4.86002 22.8965 4.73632 23.0625C4.61262 23.2285 4.46614 23.3571 4.29687 23.4482C4.12759 23.5394 3.93228 23.585 3.71093 23.585C3.49608 23.585 3.29263 23.5378 3.10058 23.4434C2.90852 23.349 2.73925 23.2139 2.59276 23.0381C2.44628 22.8623 2.33072 22.6491 2.24608 22.3984C2.16145 22.1445 2.11913 21.8613 2.11913 21.5488C2.11913 21.1061 2.194 20.7269 2.34374 20.4111C2.49022 20.0921 2.69042 19.848 2.94433 19.6787C3.19498 19.5094 3.47818 19.4248 3.79394 19.4248L3.79394 20.6016C3.65396 20.6016 3.52375 20.6374 3.40331 20.709C3.27961 20.7773 3.18033 20.8815 3.10546 21.0215C3.02733 21.1615 2.98827 21.3372 2.98827 21.5488C2.98827 21.7507 3.02082 21.9183 3.08593 22.0518C3.14778 22.182 3.22916 22.2796 3.33007 22.3447C3.43098 22.4066 3.54166 22.4375 3.6621 22.4375C3.74999 22.4375 3.82974 22.4212 3.90136 22.3887C3.96972 22.3529 4.03319 22.2943 4.09179 22.2129C4.14713 22.1315 4.19921 22.0208 4.24804 21.8809C4.29687 21.7376 4.34407 21.5586 4.38964 21.3437C4.47427 20.9401 4.58332 20.5934 4.71679 20.3037C4.847 20.0107 5.01627 19.7861 5.2246 19.6299C5.42968 19.4736 5.69009 19.3955 6.00585 19.3955C6.24022 19.3955 6.45507 19.446 6.65038 19.5469C6.84244 19.6445 7.01008 19.7878 7.15331 19.9766C7.29328 20.1654 7.40233 20.3916 7.48046 20.6553C7.55858 20.9157 7.59765 21.2087 7.59765 21.5342C7.59765 22.0127 7.51301 22.418 7.34374 22.75C7.17121 23.082 6.95149 23.3343 6.68456 23.5068C6.41438 23.6761 6.13443 23.7607 5.84472 23.7607L5.84472 22.623C6.06282 22.61 6.23697 22.5498 6.36718 22.4424C6.49413 22.3317 6.5869 22.195 6.6455 22.0322C6.70084 21.8662 6.72851 21.6953 6.72851 21.5195C6.72851 21.3079 6.70084 21.1305 6.6455 20.9873C6.5869 20.8441 6.50878 20.735 6.41112 20.6602C6.31021 20.5853 6.19628 20.5479 6.06933 20.5479ZM-1.01702e-05 3.20312L7.49999 3.20312L7.49999 4.375L-1.0119e-05 4.375L-1.01702e-05 3.20312ZM4.66308 3.4082L4.65819 3.78906C4.29361 3.78581 3.9567 3.73535 3.64745 3.6377C3.33821 3.53678 3.06965 3.39681 2.84179 3.21777C2.61067 3.03548 2.43326 2.81738 2.30956 2.56348C2.18261 2.30957 2.11913 2.02799 2.11913 1.71875C2.11913 1.45833 2.15494 1.22396 2.22655 1.01562C2.29817 0.804036 2.41373 0.621745 2.57323 0.46875C2.72948 0.315755 2.93456 0.200195 3.18847 0.12207C3.43912 0.0406899 3.74511 -2.29271e-07 4.10644 -2.45066e-07L7.49999 -3.93403e-07L7.49999 1.18164L4.09667 1.18164C3.84276 1.18164 3.64094 1.21908 3.4912 1.29395C3.34146 1.36556 3.23404 1.47135 3.16894 1.61133C3.10058 1.7513 3.0664 1.9222 3.0664 2.12402C3.0664 2.33561 3.10871 2.52279 3.19335 2.68555C3.27798 2.84505 3.39354 2.97852 3.54003 3.08594C3.68651 3.19336 3.85578 3.27474 4.04784 3.33008C4.2399 3.38216 4.44498 3.4082 4.66308 3.4082Z" fill="white" fill-opacity="0.42"/>
</svg>
