<svg width="16" height="19" viewBox="0 0 16 19" fill="none" xmlns="http://www.w3.org/2000/svg">
<path d="M0.276978 4.02344C0.298273 0.858087 3.90274 -0.923095 6.39124 0.989258L13.4606 6.42285C15.5064 7.99585 15.4431 11.1295 13.3531 12.6133L13.3541 12.6143L6.26428 17.8555C3.66833 19.7743 0.0178932 17.755 0.206665 14.5303L0.276978 4.02344ZM5.71838 1.875C4.03332 0.573994 1.55433 1.68322 1.39319 3.82129L1.38538 4.03125L1.31506 14.5674V14.5791L1.11487 14.5664L1.31409 14.5791C1.16749 16.8582 3.74561 18.3354 5.60803 16.957L12.6979 11.7168L12.7008 11.7139C14.1375 10.6959 14.2452 8.57336 12.9205 7.41699L12.7877 7.30859L5.71838 1.875Z" fill="white" stroke="white" stroke-width="0.4"/>
</svg>
