<svg width="44" height="55" viewBox="0 0 44 55" fill="none" xmlns="http://www.w3.org/2000/svg">
<path d="M0.431282 11.252C0.492152 2.0952 10.9133 -3.04451 18.0993 2.47852L39.2692 18.75L39.5416 18.9668C45.1784 23.5819 44.9056 32.4357 38.9537 36.6543L38.9547 36.6553L17.7233 52.3486C10.2276 57.8891 -0.326755 52.0626 0.220345 42.7344L0.431282 11.252ZM16.5709 4.49805C11.1861 0.340498 3.23122 4.01088 2.95765 10.9375L2.95081 11.2695L2.73988 42.8213V42.833C2.28018 49.9801 10.3704 54.6405 16.234 50.3008L37.4655 34.6074L37.4684 34.6045C42.1258 31.3044 42.3356 24.3103 37.7409 20.7695L16.5709 4.49902V4.49805Z" fill="white" stroke="white" stroke-width="0.4"/>
</svg>
