<svg width="22" height="19" viewBox="0 0 22 19" fill="none" xmlns="http://www.w3.org/2000/svg">
<path d="M6.87689 4.02344C6.89819 0.858087 10.5027 -0.923095 12.9911 0.989258L20.0605 6.42285C22.1063 7.99585 22.043 11.1295 19.9531 12.6133L19.954 12.6143L12.8642 17.8555C10.2682 19.7743 6.61781 17.755 6.80658 14.5303L6.87689 4.02344ZM12.3183 1.875C10.6332 0.573994 8.15425 1.68322 7.9931 3.82129L7.98529 4.03125L7.91498 14.5674V14.5791L7.71478 14.5664L7.914 14.5791C7.76741 16.8582 10.3455 18.3354 12.2079 16.957L19.2978 11.7168L19.3007 11.7139C20.7374 10.6959 20.8452 8.57336 19.5204 7.41699L19.3876 7.30859L12.3183 1.875Z" fill="white" stroke="white" stroke-width="0.4"/>
<rect x="0.7" y="1.10137" width="3.6" height="16.6" rx="1.8" stroke="white" stroke-width="1.4"/>
</svg>
